<svg width="2800.498291015625" height="594.9182739257812" xmlns="http://www.w3.org/2000/svg">

 <g>
  <title>background</title>
  <rect fill="none" id="canvas_background" height="402" width="582" y="-1" x="-1"/>
 </g>
 <g>
  <title>Layer 1</title>
  <metadata transform="matrix(0.09280828664362062,0,0,0.09280828664362062,0,0) " id="svg_21">image/svg+xml</metadata>

  <g stroke="null" id="svg_23">
   <path stroke="#64a43a" fill="#64a43a" stroke-width="1px" id="svg_18" d="m16.03149,181.066007l18.013855,6.821124l0,-23.177676l18.017642,6.816904l0,23.196415l36.031497,13.655321l-0.007425,23.190748l18.013855,6.82731l-0.007425,-69.562229l18.035133,6.805105l-0.03214,46.381669l18.028515,6.829002l0.003182,-23.177049l18.016666,6.813047l0.01241,46.396642l17.998676,6.82228l0.073402,-23.168534l17.940411,6.80627l0,23.190275l18.013855,6.827337l0,-23.193623l18.013855,6.841837l-0.010607,-23.216773l18.032323,6.834296l-0.008486,23.197834l36.039559,13.650163l-0.011456,-23.196679l18.013855,6.826028l0,-46.389992l-288.021876,-109.163662l-0.199278,69.516609z"/>
   <path stroke="#5b422d" fill="#5b422d" stroke-width="1px" id="svg_17" d="m34.031057,164.714286l0,23.167943l-17.999175,-6.822462l0,301.552807l288.218832,109.187814l0,-324.692323l-17.999175,-6.822462l0,23.19637l-36.031497,-13.644923l0,-23.224797l-18.032323,-6.794035l0,23.19637l-17.999175,-6.850889l0,23.19637l-18.032323,-6.822462l0,-23.19637l-17.999175,-6.822462l0,23.19637l-17.999175,-6.822462l0,-46.392739l-18.032323,-6.822462l0,23.167943l-18.032323,-6.822462l0.033095,-46.392739l-18.032323,-6.822462l0,69.589109l-17.999122,-6.822462l0,-23.19637l-36.031497,-13.644923l0,-23.19637l-18.032323,-6.822462z"/>
   <path stroke="#5a9a30" fill="#5a9a30" stroke-width="1px" id="svg_16" d="m16.230768,111.549398l288.015894,109.161297l287.97915,-109.152255l-288.012298,-109.166519l-287.982746,109.157477z"/>
   <path stroke="#4f3624" fill="#4f3624" stroke-width="1px" id="svg_15" d="m592.389313,157.892888l-18.032323,6.822462l0.077327,23.166879l-36.031497,13.67335l-0.077327,-23.167079l-17.921901,6.793371l0.003182,23.190157l-18.032323,6.834378l-0.003182,23.191549l-17.996311,6.820297l-0.003182,-23.194205l-18.011479,6.831749l-0.212039,23.26373l-17.807979,6.745814l0.003182,-46.393804l-18.010546,6.855191l0.008486,23.180605l-17.314933,6.56249l-0.694382,-46.121324l-18.019318,6.821397l-0.007425,69.584725l-18.013855,6.827301l-0.010925,-23.19576l-36.031497,13.662289l0,-23.185308l-17.999175,6.822462l0,23.18459l-17.999175,6.821743l0,301.508452l288.216021,-109.216241l-0.077422,-324.691258z"/>
   <path stroke="#3b6121" fill="#3b6121" stroke-width="1px" id="svg_14" d="m592.225813,111.55844l0.1635,46.334448l-18.032323,6.822462l0.077327,23.166879l-36.031497,13.67335l-0.077327,-23.167079l-17.921901,6.793371l0.003182,23.190157l-18.032323,6.834378l-0.003182,23.191549l-17.996311,6.820297l-0.003182,-23.194205l-18.011479,6.831749l-0.212039,23.263739l-17.807979,6.745805l0.003182,-46.393804l-18.010546,6.855191l0.008486,23.180605l-17.314933,6.56249l-0.694382,-46.121324l-18.019318,6.821397l-0.007425,69.584725l-18.013855,6.827301l-0.010925,-23.19576l-36.031497,13.662289l0,-23.185308l-17.999175,6.822462l0,23.18459l-17.999175,6.821743l-0.004243,-69.581241l287.979341,-109.152255z"/>
  </g>
  <text font-style="normal" stroke="#000000" transform="matrix(1.6713236801882445,0,0,1.6713236801882445,-497.71095193428516,-126.64857815799081) " font-weight="bold" xml:space="preserve" text-anchor="start" font-family="Helvetica, Arial, sans-serif" font-size="250" id="svg_26" y="344.344557" x="750.475374" stroke-width="0" fill="#2b87d3">KAIPI</text>
 </g>
</svg>